# xmcd
#
# Track frame offsets:
#	182
#	23125
#	41402
#	64525
#	84490
#	104617
#	132607
#	153180
#	180075
#	204227
#	233167
#
# Disc length: 3418 seconds
#
# Revision: 1
# Processed by: cddbd v1.5.2PL0 Copyright (c) Steve Scherf et al.
# Submitted via: audiograbber 1.83.01
#
DISCID=810d580b
DTITLE=Taylor, James 'J.T.' - Baby I'm back
DYEAR=1993
DGENRE=Soul
TTITLE0=Baby I'm back
TTITLE1=Love thing
TTITLE2=Next 2 u
TTITLE3=Dreamin'
TTITLE4=You've got the flavor
TTITLE5=Prove my love
TTITLE6=Some kind of woman
TTITLE7=I wanna know
TTITLE8=Under my wings
TTITLE9=Feel the need
TTITLE10=Baby I'm back (Acapiano)
EXTD=
EXTT0=
EXTT1=
EXTT2=
EXTT3=
EXTT4=
EXTT5=
EXTT6=
EXTT7=
EXTT8=
EXTT9=
EXTT10=
PLAYORDER=
